<svg width="20" height="20" viewBox="0 0 20 20" fill="none" xmlns="http://www.w3.org/2000/svg">
<path d="M16.8292 6.35833C16.2436 6.7168 15.7586 7.21796 15.4194 7.81493C15.0803 8.41189 14.8981 9.08514 14.89 9.77167C14.8922 10.5445 15.1211 11.2997 15.5483 11.9438C15.9755 12.5878 16.5822 13.0924 17.2934 13.395C17.013 14.2994 16.598 15.1565 16.0625 15.9375C15.2959 17.0408 14.495 18.1433 13.2759 18.1433C12.0567 18.1433 11.7425 17.435 10.3384 17.435C8.96752 17.435 8.48002 18.1667 7.36586 18.1667C6.25169 18.1667 5.47419 17.145 4.57919 15.8917C3.39822 14.1349 2.74921 12.0748 2.71002 9.95833C2.71002 6.47417 4.97419 4.62833 7.20336 4.62833C8.38836 4.62833 9.37502 5.40583 10.1175 5.40583C10.8259 5.40583 11.9292 4.58167 13.2759 4.58167C13.9684 4.56379 14.6547 4.71648 15.2744 5.0263C15.894 5.33613 16.428 5.79357 16.8292 6.35833ZM10.2109 4.38333C10.1292 4.38333 10.0475 4.375 9.96669 4.36C9.94426 4.25311 9.93281 4.14421 9.93252 4.035C9.97117 3.13641 10.3198 2.27894 10.9192 1.60833C11.5921 0.83554 12.5352 0.349529 13.555 0.25C13.5792 0.368333 13.5909 0.489167 13.59 0.61C13.5677 1.52646 13.2314 2.40749 12.6375 3.10583C12.3407 3.47211 11.9726 3.77422 11.5554 3.99383C11.1382 4.21344 10.6808 4.34596 10.2109 4.38333Z" fill="white"/>
</svg>
