<svg width="20" height="20" viewBox="0 0 20 20" fill="none" xmlns="http://www.w3.org/2000/svg">
<path fill-rule="evenodd" clip-rule="evenodd" d="M13.6509 13.06L16.4167 11.5008C16.9584 11.2092 17.3334 10.6258 17.3334 10.0008C17.2917 9.37583 16.9167 8.7925 16.375 8.50083L13.6167 6.9325L10.5225 9.98583L13.6509 13.06ZM9.92835 9.40167L12.8642 6.50417L6.04169 2.625C5.79169 2.45833 5.45835 2.375 5.12502 2.375C4.49752 2.375 3.92169 2.715 3.62752 3.20833L9.92835 9.40167ZM3.41669 4.17L9.33502 9.98667L3.41669 15.8308V4.17ZM9.93002 10.5717L12.8959 13.4858L6.00002 17.375C5.75002 17.5417 5.45835 17.625 5.12502 17.625C4.49335 17.625 3.94169 17.28 3.63835 16.7817L9.93002 10.5717Z" fill="white"/>
</svg>
