<svg width="20" height="20" viewBox="0 0 20 20" fill="none" xmlns="http://www.w3.org/2000/svg">
<path d="M14.7513 14.7543H12.7525V11.6215C12.7525 10.8745 12.7375 9.913 11.71 9.913C10.6683 9.913 10.5093 10.726 10.5093 11.5668V14.7543H8.50975V8.3125H10.4298V9.19H10.456C10.7245 8.6845 11.377 8.14975 12.352 8.14975C14.377 8.14975 14.752 9.48325 14.752 11.218V14.7543H14.7513ZM6.25225 7.43125C6.09967 7.43145 5.94854 7.40153 5.80755 7.3432C5.66655 7.28488 5.53845 7.1993 5.43059 7.09138C5.32273 6.98345 5.23724 6.85529 5.17901 6.71426C5.12078 6.57322 5.09095 6.42208 5.09125 6.2695C5.0914 6.03988 5.15964 5.81545 5.28733 5.62461C5.41503 5.43377 5.59645 5.28508 5.80865 5.19734C6.02085 5.1096 6.2543 5.08676 6.47949 5.13171C6.70467 5.17665 6.91147 5.28736 7.07373 5.44983C7.23599 5.6123 7.34644 5.81925 7.39109 6.04449C7.43574 6.26973 7.4126 6.50315 7.32459 6.71524C7.23658 6.92733 7.08765 7.10855 6.89664 7.236C6.70564 7.36345 6.48112 7.4314 6.2515 7.43125H6.25225ZM7.25425 14.7543H5.2495V8.3125H7.255V14.7543H7.25425ZM15.7525 3.25H4.24675C3.69475 3.25 3.25 3.685 3.25 4.22275V15.7773C3.25 16.315 3.6955 16.75 4.246 16.75H15.7495C16.3 16.75 16.75 16.315 16.75 15.7773V4.22275C16.75 3.685 16.3 3.25 15.7495 3.25H15.7518H15.7525Z" fill="#C4CBC9"/>
</svg>
