<svg width="24" height="24" viewBox="0 0 24 24" fill="none" xmlns="http://www.w3.org/2000/svg">
<g clip-path="url(#clip0_413_7086)">
<path d="M11.9036 23.8072C18.4778 23.8072 23.8072 18.4778 23.8072 11.9036C23.8072 5.32943 18.4778 0 11.9036 0C5.32943 0 0 5.32943 0 11.9036C0 18.4778 5.32943 23.8072 11.9036 23.8072Z" fill="#F0F0F0"/>
<path d="M23.8072 11.9036C23.8072 7.18429 21.0608 3.10656 17.0791 1.18115V22.626C21.0608 20.7007 23.8072 16.6229 23.8072 11.9036Z" fill="#D80027"/>
<path d="M0 11.9036C0 16.6229 2.74643 20.7007 6.72815 22.6261V1.18115C2.74643 3.10656 0 7.18429 0 11.9036Z" fill="#D80027"/>
<path d="M13.9738 13.4562L16.0439 12.4211L15.0089 11.9036V10.8685L12.9387 11.9036L13.9738 9.83339H12.9387L11.9035 8.28076L10.8684 9.83339H9.83334L10.8684 11.9036L8.79824 10.8685V11.9036L7.76318 12.4211L9.83334 13.4562L9.31582 14.4913H11.386V16.044H12.4211V14.4913H14.4913L13.9738 13.4562Z" fill="#D80027"/>
</g>
<defs>
<clipPath id="clip0_413_7086">
<rect width="23.8072" height="23.8072" fill="white"/>
</clipPath>
</defs>
</svg>
