<svg width="24" height="24" viewBox="0 0 24 24" fill="none" xmlns="http://www.w3.org/2000/svg">
<g clip-path="url(#clip0_413_7095)">
<path d="M0 11.9035C0 13.3596 0.261926 14.7544 0.740396 16.0439L11.9036 16.5615L23.0668 16.044C23.5454 14.7544 23.8072 13.3596 23.8072 11.9035C23.8072 10.4475 23.5454 9.05272 23.0668 7.76318L11.9036 7.24561L0.740396 7.76313C0.261926 9.05272 0 10.4475 0 11.9035H0Z" fill="#FFDA44"/>
<path d="M11.9037 0C6.78556 0 2.42238 3.23034 0.740479 7.76325H23.067C21.385 3.23034 17.0218 0 11.9037 0Z" fill="#D80027"/>
<path d="M23.0669 16.0439H0.740479C2.42238 20.5768 6.78556 23.8072 11.9037 23.8072C17.0218 23.8072 21.385 20.5768 23.0669 16.0439Z" fill="#496E2D"/>
<path d="M11.9034 7.76318L12.931 10.926H16.257L13.5664 12.8809L14.5941 16.0439L11.9034 14.0891L9.21279 16.0439L10.2406 12.8809L7.55005 10.926H10.8758L11.9034 7.76318Z" fill="black"/>
</g>
<defs>
<clipPath id="clip0_413_7095">
<rect width="23.8072" height="23.8072" fill="white"/>
</clipPath>
</defs>
</svg>
