<svg width="9" height="9" viewBox="0 0 9 9" fill="none" xmlns="http://www.w3.org/2000/svg">
<g clip-path="url(#clip0_413_7153)">
<path d="M4.15345 8.30691C6.44734 8.30691 8.30691 6.44734 8.30691 4.15345C8.30691 1.85956 6.44734 0 4.15345 0C1.85956 0 0 1.85956 0 4.15345C0 6.44734 1.85956 8.30691 4.15345 8.30691Z" fill="#F0F0F0"/>
<path d="M0 4.1534C0 5.93925 1.12714 7.46165 2.70878 8.04852V0.258301C1.12714 0.845138 0 2.36757 0 4.1534Z" fill="#6DA544"/>
<path d="M8.30693 4.1534C8.30693 2.36757 7.17978 0.845138 5.59814 0.258301V8.04854C7.17978 7.46165 8.30693 5.93925 8.30693 4.1534Z" fill="#6DA544"/>
</g>
<defs>
<clipPath id="clip0_413_7153">
<rect width="8.30691" height="8.30691" fill="white"/>
</clipPath>
</defs>
</svg>
