<svg width="24" height="24" viewBox="0 0 24 24" fill="none" xmlns="http://www.w3.org/2000/svg">
<g clip-path="url(#clip0_413_7070)">
<path d="M11.9036 23.8072C18.4778 23.8072 23.8072 18.4778 23.8072 11.9036C23.8072 5.32943 18.4778 0 11.9036 0C5.32943 0 0 5.32943 0 11.9036C0 18.4778 5.32943 23.8072 11.9036 23.8072Z" fill="#F0F0F0"/>
<path d="M0 11.9034C0 17.0216 3.23034 21.3847 7.76325 23.0667V0.740234C3.23034 2.42208 0 6.78532 0 11.9034Z" fill="#6DA544"/>
<path d="M23.8072 11.9034C23.8072 6.78532 20.5769 2.42208 16.0439 0.740234V23.0667C20.5769 21.3847 23.8072 17.0216 23.8072 11.9034Z" fill="#6DA544"/>
</g>
<defs>
<clipPath id="clip0_413_7070">
<rect width="23.8072" height="23.8072" fill="white"/>
</clipPath>
</defs>
</svg>
