<svg width="24" height="24" viewBox="0 0 24 24" fill="none" xmlns="http://www.w3.org/2000/svg">
<g clip-path="url(#clip0_413_7103)">
<path d="M11.9036 23.8072C18.4778 23.8072 23.8072 18.4778 23.8072 11.9036C23.8072 5.32943 18.4778 0 11.9036 0C5.32943 0 0 5.32943 0 11.9036C0 18.4778 5.32943 23.8072 11.9036 23.8072Z" fill="#F0F0F0"/>
<path d="M3.48648 20.3206C-1.16216 15.672 -1.16216 8.13502 3.48648 3.48633C3.48616 3.48684 10.351 11.9035 10.351 11.9035L3.48648 20.3206Z" fill="black"/>
<path d="M10.351 11.9035L1.57873 5.97559C1.30676 6.44834 1.06692 6.94178 0.86084 7.45252L5.30187 11.9036L0.860979 16.3549C1.06687 16.8653 1.30648 17.3584 1.57827 17.8308L10.351 11.9035Z" fill="#FFDA44"/>
<path d="M23.7065 10.3512H10.3507L3.48643 3.48682C2.74674 4.22651 2.10408 5.06307 1.57883 5.97588L7.49526 11.9038L1.57837 17.831C2.10362 18.744 2.74655 19.5808 3.48643 20.3207L10.3507 13.4564H23.7065C23.7727 12.9482 23.8073 12.43 23.8073 11.9038C23.8073 11.3776 23.7727 10.8594 23.7065 10.3512Z" fill="#6DA544"/>
<path d="M4.65625 21.3463C6.66354 22.8892 9.17618 23.8071 11.9036 23.8071C17.4034 23.8071 22.0312 20.0769 23.3971 15.0088H10.9938L4.65625 21.3463Z" fill="#0052B4"/>
<path d="M23.3971 8.79831C22.0312 3.73016 17.4034 0 11.9036 0C9.17618 0 6.66354 0.917927 4.65625 2.46084L10.9937 8.79831H23.3971Z" fill="#D80027"/>
</g>
<defs>
<clipPath id="clip0_413_7103">
<rect width="23.8072" height="23.8072" fill="white"/>
</clipPath>
</defs>
</svg>
