<svg width="24" height="24" viewBox="0 0 24 24" fill="none" xmlns="http://www.w3.org/2000/svg">
<g clip-path="url(#clip0_413_7078)">
<path d="M11.9036 23.8072C18.4778 23.8072 23.8072 18.4778 23.8072 11.9036C23.8072 5.32943 18.4778 0 11.9036 0C5.32943 0 0 5.32943 0 11.9036C0 18.4778 5.32943 23.8072 11.9036 23.8072Z" fill="#F0F0F0"/>
<path d="M2.46079 4.65674C1.52575 5.87328 0.820692 7.27544 0.410156 8.79868H6.60273L2.46079 4.65674Z" fill="#0052B4"/>
<path d="M23.3973 8.79864C22.9868 7.27544 22.2817 5.87328 21.3467 4.65674L17.2048 8.79864H23.3973Z" fill="#0052B4"/>
<path d="M0.410156 15.0093C0.820738 16.5325 1.52579 17.9346 2.46079 19.1511L6.60259 15.0093H0.410156Z" fill="#0052B4"/>
<path d="M19.1509 2.46083C17.9344 1.52579 16.5323 0.820738 15.009 0.410156V6.60269L19.1509 2.46083Z" fill="#0052B4"/>
<path d="M4.65649 21.3464C5.87303 22.2814 7.2752 22.9865 8.79839 23.3971V17.2046L4.65649 21.3464Z" fill="#0052B4"/>
<path d="M8.79835 0.410156C7.27515 0.820738 5.87299 1.52579 4.65649 2.46079L8.79835 6.60264V0.410156Z" fill="#0052B4"/>
<path d="M15.009 23.3971C16.5322 22.9865 17.9344 22.2814 19.1509 21.3464L15.009 17.2046V23.3971Z" fill="#0052B4"/>
<path d="M17.2048 15.0093L21.3467 19.1512C22.2817 17.9347 22.9868 16.5325 23.3973 15.0093H17.2048Z" fill="#0052B4"/>
<path d="M23.7065 10.351H13.4563H13.4563V0.100762C12.948 0.0345949 12.4298 0 11.9036 0C11.3773 0 10.8592 0.0345949 10.351 0.100762V10.3509V10.3509H0.100762C0.0345949 10.8592 0 11.3774 0 11.9036C0 12.4299 0.0345949 12.948 0.100762 13.4562H10.3509H10.3509V23.7065C10.8592 23.7726 11.3773 23.8072 11.9036 23.8072C12.4298 23.8072 12.948 23.7727 13.4562 23.7065V13.4563V13.4563H23.7065C23.7726 12.948 23.8072 12.4299 23.8072 11.9036C23.8072 11.3774 23.7726 10.8592 23.7065 10.351Z" fill="#D80027"/>
<path d="M15.009 15.0088L20.3208 20.3206C20.5651 20.0764 20.7982 19.8211 21.0205 19.5564L16.4729 15.0088H15.009V15.0088Z" fill="#D80027"/>
<path d="M8.79842 15.0088H8.79833L3.48657 20.3205C3.73078 20.5648 3.98611 20.7979 4.25077 21.0203L8.79842 16.4725V15.0088Z" fill="#D80027"/>
<path d="M8.79838 8.79827V8.79818L3.48657 3.48633C3.24227 3.73054 3.00922 3.98586 2.78687 4.25053L7.33456 8.79822H8.79838V8.79827Z" fill="#D80027"/>
<path d="M15.009 8.79818L20.3209 3.48628C20.0767 3.24198 19.8213 3.00893 19.5567 2.78662L15.009 7.33431V8.79818Z" fill="#D80027"/>
</g>
<defs>
<clipPath id="clip0_413_7078">
<rect width="23.8072" height="23.8072" fill="white"/>
</clipPath>
</defs>
</svg>
