<svg width="16" height="16" viewBox="0 0 16 16" fill="none" xmlns="http://www.w3.org/2000/svg">
<path d="M14.7905 9.69431C13.8555 13.4448 10.0569 15.7272 6.30603 14.792C2.5567 13.857 0.274247 10.0581 1.20966 6.30798C2.14426 2.55711 5.94286 0.274482 9.6926 1.20949C13.4432 2.14449 15.7256 5.94375 14.7904 9.69438L14.7905 9.69431H14.7905Z" fill="#4D82FF"/>
<path d="M11.0871 7.00334C11.2264 6.07169 10.5172 5.57089 9.54725 5.23681L9.86189 3.9748L9.09367 3.78338L8.78737 5.01216C8.58541 4.96179 8.37801 4.91433 8.17187 4.86727L8.48039 3.63039L7.71265 3.43896L7.39783 4.70056C7.23071 4.66251 7.06656 4.6249 6.9073 4.58527L6.90819 4.5813L5.8488 4.31676L5.64444 5.13726C5.64444 5.13726 6.2144 5.26791 6.20239 5.27595C6.51347 5.3536 6.56973 5.55953 6.56039 5.72275L6.20198 7.16047C6.2234 7.16592 6.25118 7.17379 6.28184 7.1861C6.25621 7.17974 6.22894 7.17279 6.20064 7.16602L5.69827 9.18006C5.66025 9.27457 5.56375 9.41641 5.34626 9.36255C5.35396 9.3737 4.7879 9.22321 4.7879 9.22321L4.40649 10.1026L5.40621 10.3518C5.59219 10.3984 5.77444 10.4472 5.95392 10.4931L5.63602 11.7696L6.40336 11.961L6.71817 10.6981C6.9278 10.755 7.13123 10.8075 7.33039 10.857L7.01663 12.1139L7.78489 12.3054L8.10275 11.0313C9.41273 11.2792 10.3977 11.1792 10.8123 9.99437C11.1464 9.04041 10.7957 8.49016 10.1065 8.13134C10.6085 8.01558 10.9866 7.68543 11.0874 7.00344L11.0871 7.00327L11.0871 7.00334ZM9.3319 9.46459C9.09449 10.4186 7.48831 9.90287 6.96756 9.77355L7.38942 8.08244C7.91013 8.21244 9.58003 8.4697 9.33194 9.46459H9.3319ZM9.56949 6.98951C9.35291 7.85725 8.01607 7.4164 7.58241 7.3083L7.96488 5.77456C8.39854 5.88266 9.79509 6.08442 9.56956 6.98951H9.56949Z" fill="white"/>
</svg>
