<svg width="9" height="9" viewBox="0 0 9 9" fill="none" xmlns="http://www.w3.org/2000/svg">
<g clip-path="url(#clip0_413_7141)">
<path d="M4.13174 4.07181C4.42791 4.07181 4.56068 4.06401 4.58638 4.06211L4.58552 4.0619C5.49415 4.02223 6.17192 3.86609 6.17192 3.67957C6.17192 3.49304 5.49393 3.3369 4.58552 3.29702V3.90681C4.56004 3.90913 4.41849 3.92074 4.13581 3.92074C3.90025 3.92074 3.72979 3.91082 3.67026 3.9066V3.2966C2.75992 3.33669 2.08043 3.49262 2.08043 3.67957C2.08043 3.86651 2.75992 4.02265 3.67026 4.06211C3.72893 4.06485 3.89618 4.07181 4.13174 4.07181Z" fill="#4D82FF"/>
<path fill-rule="evenodd" clip-rule="evenodd" d="M0.497636 3.78043L1.82299 1.03744C1.82733 1.0282 1.83429 1.02039 1.84303 1.01496C1.85177 1.00953 1.86191 1.00671 1.87224 1.00684H6.3811C6.39138 1.00681 6.40145 1.0097 6.41011 1.01517C6.41877 1.02063 6.42565 1.02843 6.42993 1.03765L7.75528 3.78064C7.76032 3.79084 7.76192 3.80237 7.75984 3.81353C7.75776 3.82469 7.75211 3.8349 7.74372 3.84267L4.16426 7.22204C4.15409 7.23165 4.14055 7.23701 4.12646 7.23701C4.11237 7.23701 4.09883 7.23165 4.08866 7.22204L0.5092 3.84246C0.500806 3.83469 0.495156 3.82448 0.493075 3.81332C0.490995 3.80216 0.492593 3.79063 0.497636 3.78043ZM4.58638 2.68808V3.23394C5.61482 3.2808 6.38757 3.48145 6.38757 3.72219C6.38757 3.96294 5.61407 4.16381 4.58616 4.21044V5.96026H3.67004V4.21107C2.63978 4.16423 1.865 3.96336 1.865 3.7224C1.865 3.48144 2.63978 3.28035 3.67004 3.23372V2.68808H2.40251V1.85569H5.85413V2.68808H4.58638Z" fill="#4D82FF"/>
</g>
<defs>
<clipPath id="clip0_413_7141">
<rect width="8.3069" height="8.3069" fill="white" transform="translate(-0.0270996 -0.0317383)"/>
</clipPath>
</defs>
</svg>
