<svg width="16" height="16" viewBox="0 0 16 16" fill="none" xmlns="http://www.w3.org/2000/svg">
<path d="M8 15C11.8792 15 15 11.8792 15 8C15 4.12081 11.8792 1 8 1C4.12081 1 1 4.12081 1 8C1 11.8792 4.12081 15 8 15Z" fill="#4D82FF"/>
<path d="M9.92491 9.10835C9.92491 8.08754 9.31241 7.73754 8.08741 7.59173C7.21241 7.47504 7.03741 7.24173 7.03741 6.83335C7.03741 6.42497 7.3291 6.16254 7.91241 6.16254C8.43741 6.16254 8.7291 6.33754 8.87491 6.77504C8.9041 6.86254 8.9916 6.92085 9.0791 6.92085H9.54572C9.66241 6.92085 9.74991 6.83335 9.74991 6.71673V6.68754C9.63322 6.04585 9.10822 5.55004 8.43741 5.49173V4.79173C8.43741 4.67504 8.34991 4.58754 8.2041 4.55835H7.7666C7.64991 4.55835 7.56241 4.64585 7.53322 4.79173V5.46254C6.65822 5.57923 6.1041 6.16254 6.1041 6.89173C6.1041 7.85423 6.68741 8.23335 7.91241 8.37923C8.7291 8.52504 8.9916 8.70004 8.9916 9.16673C8.9916 9.63342 8.58322 9.95423 8.0291 9.95423C7.27072 9.95423 7.00822 9.63335 6.92072 9.19585C6.8916 9.07923 6.8041 9.02085 6.7166 9.02085H6.22072C6.1041 9.02085 6.0166 9.10835 6.0166 9.22504V9.25423C6.13322 9.98335 6.59991 10.5084 7.56241 10.6542V11.3542C7.56241 11.4709 7.64991 11.5584 7.79572 11.5875H8.23322C8.34991 11.5875 8.43741 11.5 8.4666 11.3542V10.6542C9.3416 10.5084 9.92491 9.89585 9.92491 9.10835Z" fill="white"/>
<path d="M6.51258 12.1709C4.23758 11.3542 3.07089 8.81675 3.91677 6.57087C4.35427 5.34587 5.31677 4.41256 6.51258 3.97506C6.62927 3.91675 6.68758 3.82925 6.68758 3.68337V3.27506C6.68758 3.15837 6.62927 3.07087 6.51258 3.04175C6.48339 3.04175 6.42508 3.04175 6.39589 3.07087C3.62508 3.94587 2.10839 6.89175 2.98339 9.66256C3.50839 11.2959 4.76258 12.5501 6.39589 13.0751C6.51258 13.1334 6.62927 13.0751 6.65839 12.9584C6.68758 12.9292 6.68758 12.9001 6.68758 12.8417V12.4334C6.68758 12.3459 6.60008 12.2292 6.51258 12.1709ZM9.60427 3.07087C9.48758 3.01256 9.37089 3.07087 9.34177 3.18756C9.31258 3.21675 9.31258 3.24587 9.31258 3.30425V3.71256C9.31258 3.82925 9.40008 3.94587 9.48758 4.00425C11.7626 4.82087 12.9293 7.35837 12.0834 9.60425C11.6459 10.8292 10.6834 11.7626 9.48758 12.2001C9.37089 12.2584 9.31258 12.3459 9.31258 12.4917V12.9001C9.31258 13.0167 9.37089 13.1042 9.48758 13.1334C9.51677 13.1334 9.57508 13.1334 9.60427 13.1042C12.3751 12.2292 13.8918 9.28337 13.0168 6.51256C12.4918 4.85006 11.2084 3.59587 9.60427 3.07087Z" fill="white"/>
</svg>
